<?xml version="1.0" encoding="UTF-8" standalone="no"?>
<!-- Created with Inkscape (http://www.inkscape.org/) -->

<!-- width="512"
   height="512" -->

<svg
   viewBox="0 0 512 512"
   version="1.1"
   id="svg5"
   xmlns="http://www.w3.org/2000/svg"
   xmlns:svg="http://www.w3.org/2000/svg">
  <defs
     id="defs2" />
  <g
     id="layer3">
    <circle
       style="fill:#666666;stroke:#666666;stroke-width:1.27182"
       id="path5697"
       cx="255"
       cy="256"
       r="254.36409" />
  </g>
  <g
     id="layer6"
     transform="matrix(0.84098651,0,0,1.1625625,12.578048,-11.693846)"
     style="display:none">
    <path
       id="path7929"
       style="fill:#ffffff;stroke:#ececec;stroke-width:9.4862;stroke-linecap:round;stroke-linejoin:round"
       d="m 328.77056,149.97394 c 0,7.79602 -66.4513,20.45737 -120.57704,20.45737 -46.90849,0 -127.701248,-12.66135 -127.70126,-20.45737 -5e-6,-3.52441 55.57898,-14.11595 124.13915,-14.11595 68.56017,0 124.13915,9.16767 124.13915,14.11595 z" />
    <path
       id="rect8021-8"
       style="fill:#ffffff;stroke:#ececec;stroke-width:10.4473;stroke-linecap:round;stroke-linejoin:round;stroke-miterlimit:2.1"
       d="m 76.513504,283.45125 c 42.089986,10.58043 85.463036,17.57632 127.212196,17.65893 43.80343,0.0867 84.8581,-5.82172 128.32065,-16.23506 v 0 41.83811 0 c -16.6067,10.1542 -69.30699,19.5414 -126.35232,19.23254 -54.69057,-0.29611 -113.783491,-9.87785 -130.288979,-19.23254 v 0 z m 0,59.50194 c 42.089986,10.58043 85.463036,17.57632 127.212196,17.65893 43.80343,0.0867 84.8581,-5.82172 128.32065,-16.23506 v 0 41.83811 0 c -16.6067,10.1542 -69.30699,19.5414 -126.35232,19.23254 C 151.00346,405.1516 91.910539,395.56986 75.405051,386.21517 v 0 z m 0,59.50193 c 42.089986,10.58043 85.463036,17.57632 127.212196,17.65893 43.80343,0.0867 84.8581,-5.82172 128.32065,-16.23506 v 0 41.83811 0 c -16.6067,10.1542 -69.30699,19.5414 -126.35232,19.23254 C 151.00346,464.65353 91.910539,455.07179 75.405051,445.7171 v 0 z"
       class="UnoptimicedTransforms"
       transform="matrix(1,0,0,0.97444168,1.5618171,-108.61908)" />
  </g>
  <g
     id="layer1"
     transform="matrix(0.99978388,0,0,1.1814384,0.05532648,-12.806911)"
     style="fill:#ffffff;stroke:#ffffff">
    <path
       id="path2478"
       style="fill:#ffffff;stroke:#ffffff;stroke-width:1.13437"
       d="m 443.37443,236.25466 c 0,12.67032 -9.05956,6.42488 -11.5101,16.9256 -17.83403,76.42009 -89.12041,115.49734 -175.86432,115.49734 -88.37815,0 -162.208439,-35.50888 -178.009028,-115.49734 -1.838804,-9.30872 -9.365408,-5.99248 -9.365408,-16.9256 z"
       class="UnoptimicedTransforms"
       transform="matrix(0.9327386,0,0,0.99998685,17.218917,-5.3375913)" />
    <path
       id="path2478-2"
       style="fill:#ffffff;stroke:#ffffff;stroke-width:0.351019"
       d="M 160.97947,366.33897 A 95.251441,26.873668 0 0 1 256,341.33531 a 95.251441,26.873668 0 0 1 95.02054,25.00366 z" />
  </g>
  <g
     id="layer2"
     style="fill:#ffffff;stroke:#ffffff">
    <rect
       style="fill:#ffffff;stroke:#ffffff"
       id="rect5677"
       width="45.575302"
       height="208.54153"
       x="425.67761"
       y="-87.62941"
       transform="rotate(34.25479)"
       ry="11.198222" />
  </g>
  <g
     id="layer5">
    <path
       style="fill:#666666;stroke:#ffffff"
       d="m 407.51319,279.07482 c -10.35802,32.45514 -41.03913,84.44158 -97.8585,114.62767 53.87096,-8.26073 96.25383,-65.48152 97.8585,-114.62767 z"
       id="path5862" />
  </g>
</svg>
